<svg width="56" height="55" xmlns="http://www.w3.org/2000/svg" xmlns:xlink="http://www.w3.org/1999/xlink" xml:space="preserve" overflow="hidden"><defs><clipPath id="clip0"><rect x="359" y="102" width="56" height="55"/></clipPath></defs><g clip-path="url(#clip0)" transform="translate(-359 -102)"><path d="M49.1563 15.5833C48.6979 13.5781 46.8646 12.0312 44.6875 12.0312L41.5365 12.0312 40.9063 15.6979C40.849 16.0417 40.849 16.4427 41.0208 16.7865 41.25 17.3021 41.7656 17.6458 42.2813 17.7604 42.8542 17.875 43.4271 17.7031 43.8281 17.2448 44.0573 16.9583 44.2292 16.6146 44.2865 16.2708L44.6875 14.0938C44.7448 13.8073 45.0312 13.5781 45.375 13.6354 45.6615 13.6927 45.8906 13.9792 45.8333 14.3229L45.4896 16.4427C45.375 17.2448 44.9167 17.9896 44.2292 18.4479 43.7708 18.7917 43.1979 18.9062 42.625 18.9062 42.4531 18.9062 42.2813 18.9062 42.1094 18.849 41.25 18.6771 40.5625 18.2188 40.1042 17.474 39.7604 16.8438 39.6458 16.1563 39.7604 15.4688L40.276 12.4323 36.2656 16.8438C35.4635 17.7604 34.2031 18.3333 32.9427 18.3333L16.6146 18.3333C15.125 18.3333 13.75 18.9062 12.7188 19.8802 10.7708 19.5365 7.50521 18.5052 5.55729 15.2396 5.09896 14.4375 4.06771 14.0938 3.26562 14.4948 2.34896 14.9531 2.0625 16.0417 2.57812 16.901 4.86979 20.7969 8.42188 22.3438 11.0573 23.0313 10.9427 23.375 10.8854 23.7188 10.8854 24.0625L10.8854 41.1927C10.8854 42.0521 11.4583 42.7969 12.2604 42.9688 13.349 43.1979 14.3229 42.3385 14.3229 41.3073L14.3229 30.3646 22.1146 30.3646C23.3177 31.3958 25.4948 32.0833 28.0729 32.0833 28.0729 32.0833 29.0469 32.0833 30.3646 32.0833L30.3646 41.1354C30.3646 42.0521 31.0521 42.9115 31.9688 42.9688 32.9427 43.026 33.8021 42.224 33.8021 41.25L33.8021 32.0833 36.0938 32.0833 36.0938 41.1927C36.0938 42.0521 36.6667 42.7969 37.4688 42.9688 38.5573 43.1979 39.5312 42.3385 39.5312 41.3073L39.5312 30.651C40.9063 28.9323 41.8229 26.3542 41.8229 26.3542L44.1146 20.625 49.2708 20.625C51.1615 20.625 52.7083 19.0781 52.7083 17.1875L49.1563 15.5833Z" fill="#7030A0" transform="matrix(1.01818 0 0 1 359 102)"/><path d="M16.6146 40.6771C16.6146 41.651 17.3594 42.3958 18.3333 42.3958 19.3073 42.3958 20.0521 41.651 20.0521 40.6771L20.0521 30.9375 16.6146 30.9375 16.6146 40.6771Z" fill="#7030A0" transform="matrix(1.01818 0 0 1 359 102)"/></g></svg>