<svg width="48" height="47" xmlns="http://www.w3.org/2000/svg" xmlns:xlink="http://www.w3.org/1999/xlink" xml:space="preserve" overflow="hidden"><defs><clipPath id="clip0"><rect x="471" y="101" width="48" height="47"/></clipPath></defs><g clip-path="url(#clip0)" transform="translate(-471 -101)"><path d="M37.8938 11.8479 33.7812 5.875 33.7812 4.1125C33.7812 3.67188 33.2427 3.47604 32.949 3.76979L26.1927 10.0854C25.4094 10.8198 24.9688 11.8479 24.9688 12.925L24.9688 13.2188C24.9688 17.3802 13.7083 19.0938 13.7083 32.3125 13.7083 34.075 13.8063 35.5927 14.051 36.8656 13.9531 36.7677 13.8552 36.6698 13.7083 36.5719 12.5823 35.4948 11.2604 33.0958 11.2604 27.9062 11.2604 26.0948 12.1417 24.2344 13.0229 22.4719 14.3938 19.6323 15.9604 16.401 13.2677 13.6594 12.6802 13.0719 11.75 13.0719 11.2115 13.6594 10.624 14.2469 10.624 15.1771 11.2115 15.7156 12.3375 16.8417 11.8479 18.1635 10.4281 21.15 9.4 23.1573 8.32292 25.4583 8.32292 27.9062 8.32292 32.949 9.49792 36.6208 11.75 38.775 12.925 39.901 14.1979 40.3417 15.0792 40.5375 16.0094 42.4958 17.1354 43.0833 17.625 43.0833L23.5 43.0833C24.3323 43.0833 24.9688 42.4469 24.9688 41.6146 24.9688 40.8802 24.4302 40.2437 23.6958 40.1458L22.0312 40.1458C23.8917 39.1177 25.4583 37.0125 25.4583 33.2917 25.4583 30.0604 24.8219 28.7385 22.6677 27.5635 22.325 27.3677 22.1781 26.9271 22.374 26.5844 22.5698 26.2417 23.0104 26.0948 23.3531 26.2906 26.3396 27.8573 26.9271 30.0604 26.9271 33.2917 26.9271 35.0542 26.5844 36.6208 25.9479 37.9427L25.9479 41.6146C25.9479 42.4469 26.5844 43.0833 27.4167 43.0833 28.249 43.0833 28.8854 42.4469 28.8854 41.6146L28.8854 37.1104C29.2281 36.7188 29.5708 36.2781 29.8646 35.7885L29.8646 41.6146C29.8646 42.4469 30.501 43.0833 31.3333 43.0833 32.1656 43.0833 32.8021 42.4469 32.8021 41.6146L32.8021 28.5917C33.1448 27.1229 33.2917 25.85 33.2917 24.9688 33.2917 21.101 32.3125 20.7094 32.3125 18.6042 32.3125 17.5271 33.1938 16.6458 34.2708 16.6458 36.425 16.6458 38.1875 14.8833 38.1875 12.7292 38.1875 12.3865 38.0896 12.0927 37.8938 11.8479Z" fill="#C40000" transform="matrix(1.02128 0 0 1 471 101)"/></g></svg>